<svg xmlns="http://www.w3.org/2000/svg" fill="none" viewBox="-0.75 -0.75 14 14"><g stroke="currentColor" stroke-linecap="round" stroke-linejoin="round" stroke-width="1.5"><path d="M2.548 6.324c-.547.271-1.098.571-1.657.91a.927.927 0 0 0-.262 1.345c.934 1.273 1.833 2.291 3.193 3.296a.94.94 0 0 0 .887.117c2.809-1.048 4.547-1.826 6.882-3.221a.94.94 0 0 0 .276-1.37c-.78-1.035-1.474-1.761-2.458-2.55M5.698.446V6.66"/><path d="M7.518 4.84c-.364.728-1.092 1.456-1.82 1.82-.728-.364-1.456-1.092-1.82-1.82"/></g></svg>