<svg xmlns="http://www.w3.org/2000/svg" fill="none" viewBox="0 0 14 14" id="Card-Place--Streamline-Flex"><g id="card-place"><path id="Vector 1166" stroke="currentColor" stroke-linecap="round" stroke-linejoin="round" d="M2.8541 7.08336c-0.61248 0.30354 -1.22974 0.63949 -1.856135 1.01838 -0.523697 0.31678 -0.655674 1.01277 -0.293624 1.50625C1.75088 11.0344 2.75726 12.1746 4.28113 13.2998c0.2856 0.2109 0.66079 0.2559 0.99337 0.1317 3.14569 -1.1746 5.0919 -2.046 7.7074 -3.6085 0.5371 -0.32087 0.6852 -1.03364 0.3087 -1.5333 -0.8739 -1.15967 -1.6499 -1.97342 -2.752 -2.85757" stroke-width="1"/><path id="Vector 445" stroke="currentColor" stroke-linecap="round" stroke-linejoin="round" d="m6.38184 0.499983 0 6.958997" stroke-width="1"/><path id="Vector" stroke="currentColor" stroke-linecap="round" stroke-linejoin="round" d="M8.41992 5.42099c-0.4076 0.81519 -1.2228 1.63039 -2.03797 2.03799 -0.81523 -0.4076 -1.63043 -1.2228 -2.03803 -2.03799" stroke-width="1"/></g></svg>
